<svg width="174" height="174" viewBox="0 0 174 174" fill="none" xmlns="http://www.w3.org/2000/svg">
<path d="M174 44.2666L173.494 130.171L87 174L66.7676 163.481L153.262 119.652V108.695L54.6279 59.6074L87.5059 42.9521L132.018 65.3047V78.0146L153.262 88.0957V54.3477L109.256 32.8711L129.488 21.0381L174 44.2666ZM107.232 10.5186L20.7383 54.3477V65.3047L119.372 114.393L86.4941 131.048L41.9824 108.695V95.9854L20.7383 85.9043V119.652L64.7441 141.129L44.5117 152.962L0 129.733L0.505859 43.8291L87 0L107.232 10.5186Z" fill="url(#paint0_linear_2055_26)"/>
<path d="M129.488 21.0374L107.233 10.5186L20.7384 54.3473V65.3045L119.372 114.393L86.4942 131.048L41.9826 108.695V95.9846L20.7384 85.9039V119.652L64.7442 141.128L44.5117 152.962L66.7675 163.481L153.262 119.652V108.695L54.6279 59.6067L87.5058 42.9518L132.017 65.3045V78.0148L153.262 88.0954V54.3473L109.256 32.8712L129.488 21.0374Z" fill="url(#paint1_linear_2055_26)"/>
<defs>
<linearGradient id="paint0_linear_2055_26" x1="114.314" y1="174" x2="114.314" y2="21.0378" gradientUnits="userSpaceOnUse">
<stop stop-color="#39C6C6"/>
<stop offset="1" stop-color="#75F0A8"/>
</linearGradient>
<linearGradient id="paint1_linear_2055_26" x1="86.5919" y1="10.9568" x2="87.2048" y2="163.043" gradientUnits="userSpaceOnUse">
<stop offset="0.107183" stop-color="#1B2555"/>
<stop offset="1" stop-color="#12151F"/>
</linearGradient>
</defs>
</svg>
